<svg width="608" height="578" viewBox="0 0 608 578" fill="none" xmlns="http://www.w3.org/2000/svg">
<g filter="url(#filter0_d_3_207)">
<path d="M205.504 43.2302C207.272 42.1588 209.174 41.3314 211.158 40.7702L212.314 35.1245L221.75 34.9523L223.112 40.5611C225.112 41.06 227.038 41.8252 228.839 42.8366L233.606 39.6755L240.403 46.3175L237.448 51.2375C238.508 53.0211 239.326 54.9407 239.88 56.9447L245.462 58.1132L245.632 67.658L240.087 69.0233C239.596 71.0472 238.839 72.9956 237.837 74.8166L240.963 79.6505L234.396 86.5139L229.532 83.525C227.769 84.597 225.871 85.4244 223.89 85.985L222.674 91.6307L213.238 91.8029L211.876 86.1941C209.88 85.6951 207.958 84.9299 206.161 83.9186L201.382 87.0797L194.56 80.45L197.515 75.53C196.456 73.7417 195.638 71.8182 195.083 69.8105L189.501 68.5805L189.331 59.0357L194.876 57.6581C195.369 55.6348 196.126 53.6867 197.126 51.8648L194.001 47.0309L200.64 40.2413L205.504 43.2302ZM210.538 55.9484C209.146 57.4055 208.212 59.2474 207.855 61.2413C207.498 63.2352 207.733 65.2914 208.531 67.1501C209.329 69.0087 210.654 70.5862 212.339 71.6832C214.023 72.7802 215.991 73.3473 217.994 73.3129C219.997 73.2785 221.945 72.6441 223.592 71.4899C225.238 70.3358 226.509 68.7137 227.245 66.8287C227.98 64.9437 228.146 62.8806 227.722 60.9001C227.298 58.9197 226.303 57.1109 224.863 55.7024C223.905 54.7611 222.772 54.0205 221.53 53.5232C220.288 53.0259 218.961 52.7817 217.626 52.8045C216.29 52.8274 214.972 53.1169 213.748 53.6564C212.523 54.1959 211.416 54.9748 210.49 55.9484H210.538Z" fill="#E0E0E0"/>
<path d="M207.693 360.004C208.711 359.383 209.807 358.904 210.952 358.578L211.62 355.318L217.068 355.22L217.846 358.455C219.002 358.737 220.114 359.176 221.154 359.758L223.902 357.938L227.818 361.763L226.176 364.58C226.79 365.61 227.264 366.719 227.587 367.876L230.809 368.553L230.906 374.063L227.708 374.851C227.429 376.019 226.995 377.144 226.419 378.196L228.219 380.976L224.437 384.936L221.628 383.214C220.608 383.834 219.512 384.318 218.369 384.654L217.664 387.95L212.216 388.048L211.438 384.814C210.283 384.531 209.17 384.092 208.131 383.51L205.382 385.33L201.467 381.505L203.169 378.664C202.557 377.631 202.078 376.523 201.747 375.367L198.536 374.691L198.439 369.18L201.637 368.393C201.916 367.224 202.35 366.099 202.926 365.047L201.126 362.268L204.908 358.307L207.717 360.029L207.693 360.004ZM210.599 367.384C209.794 368.226 209.253 369.29 209.046 370.442C208.839 371.594 208.974 372.782 209.435 373.856C209.896 374.93 210.662 375.842 211.635 376.476C212.609 377.109 213.746 377.436 214.904 377.416C216.061 377.395 217.187 377.027 218.137 376.359C219.088 375.691 219.822 374.753 220.245 373.663C220.668 372.573 220.762 371.381 220.515 370.237C220.267 369.093 219.69 368.049 218.856 367.237C218.307 366.695 217.659 366.267 216.947 365.979C216.235 365.69 215.474 365.546 214.707 365.555C213.94 365.565 213.183 365.727 212.478 366.032C211.773 366.337 211.135 366.78 210.599 367.335V367.384Z" fill="#E0E0E0"/>
<path d="M89.1085 73.5989C89.8042 73.1733 90.5524 72.8425 91.3337 72.6149L91.7958 70.3886H95.5046L96.064 72.5288C96.852 72.7313 97.6119 73.033 98.3257 73.4267L100.198 72.1967L102.874 74.8043L101.658 76.7477C102.078 77.4514 102.405 78.2083 102.63 78.9986L104.831 79.466V83.156L102.643 83.6972C102.452 84.4956 102.158 85.265 101.767 85.985L102.983 87.8792L100.405 90.5852L98.4838 89.3552C97.7881 89.7808 97.0399 90.1116 96.2585 90.3392L95.7965 92.5655H92.1485L91.6134 90.3515C90.8241 90.1589 90.0635 89.8611 89.3517 89.4659L87.479 90.6959L84.8038 88.076L86.0198 86.1449C85.5991 85.4411 85.272 84.6843 85.047 83.894L82.8461 83.4266L82.7853 79.7366L84.9619 79.1954C85.1621 78.3983 85.4603 77.6297 85.8496 76.9076L84.6336 75.0134L87.2115 72.3074L89.1328 73.5374L89.1085 73.5989ZM91.0905 78.605C90.5428 79.179 90.1756 79.9044 90.0353 80.6894C89.8951 81.4745 89.9881 82.284 90.3026 83.0156C90.6171 83.7472 91.139 84.3681 91.8022 84.7997C92.4655 85.2314 93.2404 85.4544 94.029 85.4406C94.8176 85.4269 95.5844 85.177 96.2326 84.7225C96.8808 84.2679 97.3812 83.6292 97.6706 82.8871C97.9599 82.145 98.0253 81.3327 97.8584 80.553C97.6915 79.7733 97.2998 79.0612 96.7328 78.5066C96.356 78.1381 95.9112 77.8483 95.4237 77.6538C94.9361 77.4593 94.4155 77.3639 93.8915 77.373C93.3675 77.3822 92.8504 77.4957 92.3698 77.7071C91.8892 77.9185 91.4545 78.2236 91.0905 78.605Z" fill="#E0E0E0"/>
<path d="M270.633 65.69C272.005 64.8514 273.481 64.202 275.023 63.7589L275.923 59.3678L283.219 59.2325L284.276 63.599C285.836 63.9846 287.337 64.5803 288.739 65.3702L292.387 62.9102L297.774 68.15L295.488 71.9384C296.32 73.3288 296.962 74.8266 297.397 76.391L301.75 77.3012L301.872 84.6812L297.567 85.7513C297.176 87.3366 296.579 88.8627 295.792 90.29L298.224 94.0538L293.129 99.392L289.335 97.0673C287.962 97.9033 286.486 98.5526 284.945 98.9984L284.033 103.389L276.737 103.525L275.679 99.1583C274.104 98.7818 272.586 98.1901 271.168 97.3994L267.52 99.8594L262.23 94.7057L264.529 90.8681C263.701 89.4754 263.059 87.9783 262.62 86.4155L258.278 85.5053L258.145 78.1253L262.461 77.0552C262.843 75.4819 263.432 73.9677 264.212 72.5534L261.78 68.7896L266.876 63.4514L270.633 65.69ZM274.548 75.53C273.467 76.665 272.742 78.099 272.466 79.6507C272.19 81.2024 272.375 82.802 272.998 84.2472C273.621 85.6924 274.654 86.9183 275.965 87.7698C277.277 88.6213 278.809 89.0602 280.367 89.031C281.926 89.0017 283.441 88.5056 284.72 87.6055C286 86.7053 286.987 85.4415 287.556 83.9739C288.126 82.5063 288.252 80.9009 287.919 79.3606C287.587 77.8204 286.81 76.4145 285.687 75.3209C284.936 74.5999 284.053 74.0358 283.086 73.6609C282.12 73.2861 281.089 73.1078 280.055 73.1364C279.02 73.1649 278.001 73.3998 277.056 73.8274C276.111 74.255 275.259 74.867 274.548 75.6284V75.53Z" fill="#EBEBEB"/>
<path d="M464.767 249.083C466.526 248.011 468.42 247.184 470.397 246.623L471.613 240.977L481.037 240.805L482.399 246.414C484.401 246.907 486.328 247.673 488.127 248.689L492.881 245.528L499.667 252.158L496.724 257.078C497.777 258.865 498.594 260.784 499.156 262.785L504.737 264.015L504.908 273.548L499.363 274.925C498.875 276.946 498.118 278.891 497.113 280.706L500.238 285.528L493.696 292.317L488.832 289.329C487.068 290.399 485.17 291.226 483.19 291.789L481.974 297.434L472.55 297.594L471.188 292.01C469.191 291.511 467.27 290.746 465.473 289.734L460.706 292.896L453.921 286.266L456.876 281.346C455.816 279.567 454.998 277.651 454.444 275.651L448.862 274.421L448.704 264.95L454.237 263.572C454.73 261.549 455.486 259.601 456.486 257.779L453.361 252.97L459.916 246.106L464.78 249.095L464.767 249.083ZM469.789 261.789C468.401 263.246 467.471 265.086 467.116 267.078C466.762 269.069 466.999 271.123 467.798 272.978C468.597 274.833 469.921 276.407 471.604 277.501C473.287 278.595 475.253 279.159 477.254 279.123C479.254 279.087 481.199 278.452 482.842 277.298C484.486 276.144 485.754 274.524 486.487 272.641C487.22 270.758 487.384 268.697 486.96 266.72C486.535 264.742 485.541 262.936 484.102 261.531C483.146 260.595 482.018 259.859 480.781 259.366C479.543 258.872 478.222 258.63 476.893 258.654C475.563 258.678 474.251 258.968 473.032 259.505C471.813 260.043 470.711 260.819 469.789 261.789Z" fill="#E0E0E0"/>
<path d="M531.392 63.5006C531.399 59.5277 530.5 55.6066 528.765 52.0424C527.03 48.4782 524.505 45.3669 521.388 42.9504C518.27 40.534 514.643 38.8776 510.79 38.11C506.936 37.3424 502.959 37.4844 499.169 38.5248C495.378 39.5653 491.876 41.4762 488.934 44.1089C485.993 46.7416 483.691 50.0252 482.209 53.7043C480.726 57.3833 480.103 61.3587 480.387 65.3213C480.671 69.2838 481.855 73.1266 483.846 76.5509L483.919 76.6493C484.892 78.3221 486.12 79.5152 487.361 81.2618L502.208 101.139C502.639 101.703 503.191 102.16 503.824 102.474C504.456 102.788 505.151 102.952 505.856 102.952C506.561 102.952 507.256 102.788 507.888 102.474C508.521 102.16 509.073 101.703 509.504 101.139L524.096 81.5939C525.422 80.0249 526.66 78.3824 527.805 76.6739L527.866 76.6001C530.181 72.6326 531.399 68.108 531.392 63.5006ZM505.856 74.7428C503.634 74.7404 501.463 74.0717 499.617 72.8214C497.771 71.5711 496.333 69.7953 495.484 67.7183C494.636 65.6414 494.415 63.3566 494.85 61.1528C495.285 58.949 496.356 56.9251 497.928 55.3368C499.499 53.7486 501.501 52.6674 503.681 52.2299C505.86 51.7923 508.118 52.0181 510.171 52.8787C512.223 53.7393 513.977 55.196 515.211 57.0647C516.445 58.9334 517.104 61.1303 517.104 63.3776C517.104 64.8711 516.813 66.35 516.248 67.7297C515.682 69.1094 514.853 70.3628 513.809 71.4183C512.764 72.4739 511.524 73.3108 510.16 73.8812C508.795 74.4516 507.333 74.7444 505.856 74.7428Z" fill="#E0E0E0"/>
<path d="M81.8003 435.243C84.3881 433.424 86.3908 430.875 87.5602 427.915C88.7296 424.954 89.0143 421.712 88.3789 418.589C86.713 409.746 78.6509 403.829 70.5158 405.416C62.3808 407.003 57.0182 415.44 58.6841 424.296C59.2282 427.464 60.689 430.397 62.8817 432.725C65.0745 435.052 67.9005 436.669 71.0022 437.371C48.8467 445.342 54.72 470.237 54.72 470.237L108.747 459.856C108.747 459.856 105.099 434.247 81.8003 435.243Z" fill="#EBEBEB"/>
<path d="M147.258 541.368L136.192 538.588C136.192 538.588 133.894 548.035 124.141 545.784C122.256 545.385 120.54 544.402 119.232 542.972C117.925 541.541 117.09 539.733 116.845 537.801C116.615 536.182 116.768 534.531 117.29 532.983C117.812 531.436 118.689 530.035 119.849 528.896C122.5 526.214 127.34 524.382 134.441 527.592L140.63 502.217L129.626 499.474L125.978 514.345C125.978 514.345 109.574 514.529 105.391 531.725C101.378 548.182 115.034 555.636 121.284 557.186C126.075 558.379 142.625 561.269 147.258 541.368Z" fill="#EBEBEB"/>
<path d="M130.759 494.22L141.916 497.001L144.485 486.455L133.327 483.674L130.759 494.22Z" fill="#EBEBEB"/>
<path d="M70.528 270.116H95.9302L93.6928 281.641H47.9347L49.7466 272.478L77.289 250.645C84.0986 245.135 86.1779 241.912 86.1779 237.89C86.1779 233.868 83.1501 231.162 77.289 231.162C74.8151 231.199 72.3803 231.792 70.1599 232.895C67.9394 233.999 65.9887 235.587 64.448 237.546L55.0362 230.645C59.9002 223.917 68.935 219.465 79.3562 219.465C92.1363 219.465 100.502 226.365 100.502 235.885C100.502 243.13 97.2314 249.243 86.6035 257.545L70.528 270.116Z" fill="#263238"/>
<path d="M156.451 268.812H146.528L144.023 281.641H130.38L132.97 268.812H100.417L102.229 259.292L137.809 220.51H153.082L119.934 257.275H135.815L138.065 245.836H151.1L148.851 257.275H158.785L156.451 268.812Z" fill="#263238"/>
<path d="M196.335 208.112H208.945L164.573 290.374H152L196.335 208.112Z" fill="#263238"/>
<path d="M253.925 220.51L252.113 229.686L219.828 281.641H204.288L235.272 232.035H215.682L213.688 241.998H201.26L205.504 220.51H253.925Z" fill="#263238"/>
<path d="M42.2803 329.869L45.8189 323.08C48.9727 325.118 52.6314 326.214 56.3738 326.241C59.8272 326.241 61.8214 325.146 61.8214 323.4C61.8214 319.082 46.4026 321.469 46.4026 311.383C46.4026 304.458 52.2515 299.919 61.639 299.919C65.6205 299.785 69.5643 300.737 73.0573 302.674L69.7984 309.414C67.1815 307.785 64.1646 306.933 61.0918 306.954C57.3709 306.954 55.3766 308.332 55.3766 310.079C55.3766 314.482 70.7955 311.961 70.7955 321.862C70.7955 328.738 64.8128 333.276 55.5226 333.276C50.0749 333.301 45.1379 331.837 42.2803 329.869Z" fill="#263238"/>
<path d="M86.7859 307.582L85.7523 312.994H99.8458L98.496 319.771H84.3904L83.2473 325.651H99.8944L98.4352 332.661H72.96L79.3562 300.62H104.199L102.788 307.643L86.7859 307.582Z" fill="#263238"/>
<path d="M127.352 323.031L132.751 332.661H123.363L118.645 324.138H114.122L112.444 332.661H103.469L109.805 300.62H123.363C131.474 300.62 136.143 304.433 136.143 310.854C136.207 313.579 135.38 316.25 133.79 318.451C132.201 320.653 129.938 322.263 127.352 323.031ZM122.099 307.717H117.38L115.52 317.114H120.87C124.822 317.114 127.133 315.195 127.133 311.665C127.084 308.959 125.175 307.717 122.099 307.717Z" fill="#263238"/>
<path d="M175.481 300.62L155.648 332.661H146.808L139.536 300.62H148.741L153.277 321.53L166.239 300.62H175.481Z" fill="#263238"/>
<path d="M177.378 300.62H186.364L179.968 332.661H170.994L177.378 300.62Z" fill="#263238"/>
<path d="M187.763 319.181C187.763 308.037 195.873 299.919 207.656 299.919C213.505 299.919 218.272 302.084 220.534 305.971L214.016 311.198C213.288 310.005 212.255 309.033 211.027 308.383C209.799 307.734 208.42 307.432 207.036 307.508C200.871 307.508 196.785 312.317 196.785 318.639C196.785 322.957 199.692 325.847 204.543 325.847C206.025 325.854 207.489 325.527 208.829 324.888C210.169 324.25 211.351 323.317 212.289 322.157L217.591 327.422C214.016 331.788 209.347 333.387 203.68 333.387C193.976 333.301 187.763 327.569 187.763 319.181Z" fill="#263238"/>
<path d="M233.63 307.582L232.584 312.994H246.678L245.364 319.771H231.222L230.092 325.651H246.726L245.279 332.661H219.853L226.176 300.62H251.019L249.62 307.643L233.63 307.582Z" fill="#263238"/>
<path d="M76.7904 202.417H59.0733C59.0733 177.472 69.0566 151.987 86.4576 132.43C104.771 111.877 128.543 100.561 153.338 100.561C204.008 100.561 239.406 137.977 239.406 191.581H221.725C221.725 147.879 194.256 118.519 153.374 118.519C113.295 118.482 76.7904 158.481 76.7904 202.417Z" fill="#5ED8FF"/>
<path d="M86.5062 197.435C89.3395 197.435 91.6378 197.718 91.6256 197.977C91.6134 198.235 89.3274 198.432 86.5062 198.432C83.6851 198.432 81.3747 198.198 81.3747 197.89C81.3747 197.583 83.6851 197.386 86.5062 197.435Z" fill="#263238"/>
<path d="M98.7392 158.149C101.171 159.724 102.813 161.335 102.545 161.765C102.278 162.196 100.113 161.322 97.6813 159.834C95.2493 158.346 93.632 156.71 93.8874 156.218C94.1427 155.726 96.368 156.587 98.7392 158.149Z" fill="#263238"/>
<path d="M129.382 131.077C130.538 133.697 131.109 135.997 130.598 136.194C130.088 136.39 128.787 134.484 127.546 131.913C126.306 129.343 125.734 126.993 126.33 126.796C126.926 126.6 128.239 128.42 129.382 131.077Z" fill="#263238"/>
<path d="M169.754 127.854C169.048 130.634 168.088 132.774 167.613 132.676C167.139 132.577 167.236 130.216 167.844 127.399C168.452 124.582 169.401 122.479 169.985 122.59C170.568 122.7 170.459 125.087 169.754 127.854Z" fill="#263238"/>
<path d="M202.732 151.298C200.372 152.872 198.244 153.832 197.965 153.438C197.685 153.045 199.327 151.347 201.613 149.662C203.899 147.977 206.039 147.03 206.38 147.522C206.72 148.014 205.091 149.711 202.732 151.298Z" fill="#263238"/>
<path d="M213.59 189.92C210.769 189.92 208.471 189.699 208.471 189.453C208.471 189.207 210.757 188.961 213.59 188.924C216.424 188.887 218.71 189.096 218.722 189.391C218.734 189.686 216.448 189.92 213.59 189.92Z" fill="#263238"/>
<path d="M148.534 195.258C147.652 195.264 146.794 194.965 146.102 194.41L116.323 171.039C115.497 170.387 114.961 169.43 114.834 168.378C114.706 167.326 114.997 166.266 115.642 165.431C116.287 164.596 117.233 164.054 118.273 163.925C119.313 163.796 120.361 164.089 121.187 164.742L148.352 186.046L185.866 151.2C186.632 150.48 187.649 150.098 188.693 150.137C189.737 150.177 190.724 150.634 191.435 151.409C192.146 152.183 192.524 153.212 192.485 154.269C192.446 155.325 191.994 156.323 191.228 157.042L151.258 194.188C150.518 194.883 149.544 195.265 148.534 195.258Z" fill="#5ED8FF"/>
<path d="M168.732 74.2139H134.587C134.056 74.2139 133.626 74.6489 133.626 75.1856V87.6947C133.626 88.2314 134.056 88.6664 134.587 88.6664H168.732C169.263 88.6664 169.693 88.2314 169.693 87.6947V75.1856C169.693 74.6489 169.263 74.2139 168.732 74.2139Z" fill="#5ED8FF"/>
<path d="M160.974 81.4463H142.333V98.5433H160.974V81.4463Z" fill="#5ED8FF"/>
<path d="M74.7115 118.444L60.7086 135.986C60.1643 136.668 60.2695 137.667 60.9436 138.217L70.5179 146.037C71.1919 146.588 72.1795 146.481 72.7238 145.799L86.7267 128.258C87.2709 127.576 87.1657 126.577 86.4917 126.027L76.9174 118.207C76.2434 117.656 75.2558 117.763 74.7115 118.444Z" fill="#5ED8FF"/>
<path d="M168.732 88.6664C168.732 88.8755 161.084 89.0354 151.708 89.0354C142.333 89.0354 134.684 88.8755 134.684 88.6664C134.684 88.4573 142.321 88.2974 151.708 88.2974C161.096 88.2974 168.732 88.4696 168.732 88.6664Z" fill="#263238"/>
<path d="M74.3949 142.786C74.2003 143.008 71.6224 141.015 68.4365 138.592C65.2506 136.169 62.6605 134.201 62.8186 133.955C62.9766 133.709 65.8342 135.308 69.0566 137.756C72.279 140.203 74.5773 142.577 74.3949 142.786Z" fill="#263238"/>
<path d="M77.3619 138.371C77.1674 138.592 74.5895 136.6 71.4035 134.176C68.2176 131.753 65.6154 129.785 65.7735 129.539C65.9315 129.293 68.8013 130.892 72.0237 133.352C75.2461 135.812 77.5443 138.162 77.3619 138.371Z" fill="#263238"/>
<path d="M80.9978 134.668C80.8154 134.89 78.2375 132.897 75.0515 130.474C71.8656 128.051 69.312 126.083 69.4215 125.837C69.5309 125.591 72.4493 127.19 75.6595 129.65C78.8698 132.11 81.1923 134.459 80.9978 134.668Z" fill="#263238"/>
<path d="M84.5242 130.253C84.3418 130.474 81.7517 128.482 78.5658 126.058C75.3798 123.635 72.7898 121.667 72.96 121.421C73.1302 121.175 75.9878 122.774 79.1981 125.234C82.4083 127.694 84.7066 130.044 84.5242 130.253Z" fill="#263238"/>
<path d="M237.372 123.989L222.299 107.379C221.713 106.734 220.721 106.691 220.083 107.283L211.017 115.701C210.379 116.294 210.336 117.297 210.922 117.943L225.995 134.552C226.581 135.198 227.573 135.241 228.211 134.648L237.277 126.231C237.915 125.638 237.958 124.634 237.372 123.989Z" fill="#5ED8FF"/>
<path d="M213.615 120.081C213.432 119.859 215.755 117.621 218.6 114.742C221.446 111.864 223.744 109.613 223.963 109.822C224.182 110.032 222.2 112.651 219.318 115.505C216.436 118.359 213.785 120.29 213.615 120.081Z" fill="#263238"/>
<path d="M217.494 123.697C217.299 123.475 219.634 121.237 222.467 118.359C225.3 115.48 227.623 113.23 227.842 113.439C228.061 113.648 226.067 116.268 223.197 119.121C220.327 121.975 217.664 123.906 217.494 123.697Z" fill="#263238"/>
<path d="M220.57 127.891C220.376 127.67 222.71 125.431 225.544 122.553C228.377 119.675 230.7 117.424 230.918 117.633C231.137 117.842 229.143 120.45 226.261 123.303C223.379 126.157 220.74 128.1 220.57 127.891Z" fill="#263238"/>
<path d="M224.364 132.11C224.17 131.889 226.504 129.65 229.338 126.772C232.171 123.894 234.493 121.643 234.712 121.852C234.931 122.061 232.937 124.681 230.055 127.534C227.173 130.388 224.534 132.282 224.364 132.11Z" fill="#263238"/>
<path d="M138.417 88.6541C138.138 88.6541 137.907 85.4561 137.907 81.5324C137.907 77.6087 138.138 74.3984 138.417 74.3984C138.697 74.3984 138.94 77.5964 138.94 81.5324C138.94 85.4684 138.709 88.6541 138.417 88.6541Z" fill="#263238"/>
<path d="M145.105 88.6541C144.826 88.6541 144.595 85.4561 144.595 81.5324C144.595 77.6087 144.826 74.3984 145.105 74.3984C145.385 74.3984 145.616 77.5964 145.616 81.5324C145.616 85.4684 145.385 88.6541 145.105 88.6541Z" fill="#263238"/>
<path d="M151.781 88.6541C151.501 88.6541 151.27 85.4561 151.27 81.5324C151.27 77.6087 151.501 74.3984 151.781 74.3984C152.061 74.3984 152.292 77.5964 152.292 81.5324C152.292 85.4684 152.073 88.6541 151.781 88.6541Z" fill="#263238"/>
<path d="M158.469 88.6541C158.177 88.6541 157.958 85.4561 157.958 81.5324C157.958 77.6087 158.177 74.3984 158.469 74.3984C158.761 74.3984 158.98 77.5964 158.98 81.5324C158.98 85.4684 158.749 88.6541 158.469 88.6541Z" fill="#263238"/>
<path d="M165.145 88.6541C164.865 88.6541 164.634 85.4561 164.634 81.5324C164.634 77.6087 164.865 74.3984 165.145 74.3984C165.425 74.3984 165.656 77.5964 165.656 81.5324C165.656 85.4684 165.376 88.6541 165.145 88.6541Z" fill="#263238"/>
<path d="M155.762 196.288C159.248 192.762 159.248 187.046 155.762 183.52C152.277 179.994 146.625 179.994 143.14 183.52C139.654 187.046 139.654 192.762 143.14 196.288C146.625 199.813 152.277 199.814 155.762 196.288Z" fill="#5ED8FF"/>
<path d="M158.372 189.92C158.287 189.92 158.299 189.121 157.922 187.755C157.381 185.85 156.231 184.18 154.651 183.007C153.385 182.056 151.882 181.48 150.31 181.342C148.739 181.204 147.161 181.511 145.751 182.228C144.342 182.945 143.158 184.044 142.33 185.402C141.503 186.76 141.064 188.325 141.064 189.92C141.064 191.515 141.503 193.08 142.33 194.438C143.158 195.796 144.342 196.895 145.751 197.612C147.161 198.329 148.739 198.636 150.31 198.498C151.882 198.36 153.385 197.784 154.651 196.833C156.228 195.657 157.378 193.988 157.922 192.085C158.299 190.719 158.287 189.92 158.372 189.92C158.457 189.92 158.372 190.117 158.372 190.498C158.391 191.061 158.334 191.624 158.202 192.171C157.765 194.224 156.629 196.057 154.991 197.349C153.768 198.321 152.321 198.963 150.786 199.217C149.251 199.471 147.677 199.328 146.212 198.801C144.397 198.15 142.827 196.947 141.716 195.357C140.605 193.767 140.009 191.867 140.009 189.92C140.009 187.973 140.605 186.074 141.716 184.483C142.827 182.893 144.397 181.69 146.212 181.039C147.677 180.514 149.249 180.371 150.784 180.622C152.318 180.874 153.765 181.512 154.991 182.479C156.628 183.776 157.764 185.613 158.202 187.669C158.334 188.216 158.391 188.779 158.372 189.342C158.433 189.699 158.408 189.92 158.372 189.92Z" fill="#263238"/>
<path d="M463.624 220.842L478.873 218.382C488.867 226.539 501.517 230.619 514.335 229.821C527.152 229.022 539.211 223.402 548.14 214.066C557.069 204.73 562.223 192.354 562.588 179.369C562.953 166.384 558.503 153.731 550.113 143.897C541.723 134.063 529.999 127.759 517.247 126.225C504.495 124.691 491.637 128.037 481.2 135.607C470.764 143.176 463.504 154.42 460.848 167.129C458.192 179.838 460.331 193.092 466.847 204.286L463.624 220.842Z" fill="white"/>
<path d="M463.624 220.842C463.624 220.842 463.624 220.498 463.795 219.797L464.378 216.648C464.901 213.819 465.679 209.674 466.689 204.262C466.691 204.244 466.698 204.227 466.707 204.212C466.717 204.197 466.73 204.185 466.745 204.176C466.76 204.166 466.777 204.16 466.795 204.158C466.812 204.156 466.83 204.158 466.847 204.163C466.858 204.157 466.87 204.154 466.883 204.154C466.896 204.154 466.909 204.157 466.92 204.163L466.701 204.336C462.349 196.906 459.889 188.5 459.539 179.871C459.431 177.186 459.532 174.496 459.843 171.827C460.204 168.97 460.781 166.145 461.569 163.377C464.441 153.342 470.226 144.41 478.174 137.739C486.122 131.068 495.868 126.964 506.148 125.96C514.214 125.19 522.346 126.356 529.882 129.363C537.419 132.37 544.148 137.134 549.523 143.266L551.59 145.726C552.234 146.587 552.806 147.485 553.438 148.346C554.639 150.096 555.731 151.92 556.709 153.807C557.244 154.717 557.585 155.726 558.035 156.673C558.484 157.62 558.947 158.567 559.251 159.576C559.971 161.528 560.568 163.525 561.038 165.554C562.909 173.438 562.971 181.651 561.22 189.563C558.875 199.852 553.499 209.18 545.803 216.313C538.106 223.446 528.451 228.049 518.113 229.514C515.273 229.904 512.407 230.072 509.54 230.018C506.879 229.89 504.228 229.603 501.6 229.157C493.234 227.581 485.391 223.911 478.788 218.481H478.897L467.491 220.215L464.585 220.645L463.624 220.781L464.634 220.596L467.564 220.104L478.849 218.21H478.958C485.554 223.551 493.36 227.148 501.673 228.677C504.28 229.117 506.912 229.392 509.553 229.501C512.399 229.548 515.245 229.371 518.065 228.973C528.278 227.478 537.807 222.896 545.401 215.829C552.996 208.761 558.302 199.537 560.625 189.367C562.342 181.545 562.272 173.43 560.418 165.64C559.942 163.639 559.353 161.668 558.655 159.736C558.351 158.74 557.84 157.829 557.439 156.87C557.037 155.911 556.648 154.939 556.125 154.041C555.162 152.177 554.082 150.377 552.891 148.654C552.283 147.793 551.675 146.907 551.067 146.058L549.024 143.598C543.715 137.54 537.07 132.832 529.627 129.856C522.185 126.879 514.153 125.717 506.184 126.464C499.129 127.169 492.296 129.347 486.115 132.859C479.934 136.371 474.541 141.142 470.276 146.87C466.559 151.881 463.781 157.538 462.08 163.561C461.294 166.301 460.713 169.097 460.341 171.925C460.019 174.573 459.905 177.242 460.001 179.908C460.298 188.476 462.683 196.838 466.944 204.249C466.967 204.275 466.98 204.308 466.98 204.342C466.98 204.376 466.967 204.409 466.944 204.434C466.92 204.454 466.89 204.465 466.859 204.465C466.828 204.465 466.798 204.454 466.774 204.434L466.993 204.36C465.923 209.711 465.096 213.819 464.561 216.66C464.281 218.05 464.062 219.12 463.916 219.834C463.77 220.547 463.624 220.842 463.624 220.842Z" fill="#263238"/>
<path d="M526.723 179.44C526.72 178.396 527.024 177.374 527.597 176.504C528.169 175.635 528.984 174.956 529.937 174.555C530.891 174.155 531.941 174.049 532.954 174.252C533.967 174.455 534.898 174.958 535.628 175.697C536.358 176.436 536.855 177.377 537.056 178.402C537.257 179.426 537.153 180.488 536.756 181.453C536.36 182.418 535.69 183.242 534.83 183.821C533.97 184.399 532.96 184.707 531.927 184.705C530.548 184.702 529.226 184.146 528.251 183.159C527.275 182.173 526.726 180.836 526.723 179.44Z" fill="#263238"/>
<path d="M505.856 179.44C505.854 178.396 506.158 177.375 506.729 176.505C507.301 175.636 508.115 174.958 509.068 174.557C510.021 174.155 511.07 174.049 512.083 174.251C513.096 174.453 514.026 174.955 514.757 175.693C515.488 176.43 515.986 177.37 516.188 178.394C516.39 179.418 516.288 180.48 515.893 181.445C515.499 182.409 514.83 183.234 513.972 183.815C513.114 184.395 512.105 184.705 511.073 184.705C509.691 184.705 508.366 184.151 507.388 183.164C506.41 182.177 505.859 180.838 505.856 179.44Z" fill="#263238"/>
<path d="M485.05 182.073C484.534 181.169 484.295 180.131 484.362 179.089C484.43 178.048 484.801 177.05 485.429 176.222C486.057 175.394 486.914 174.773 487.891 174.437C488.868 174.102 489.921 174.067 490.918 174.337C491.914 174.607 492.81 175.17 493.49 175.955C494.17 176.739 494.605 177.71 494.74 178.745C494.875 179.78 494.703 180.832 494.246 181.768C493.79 182.704 493.07 183.482 492.176 184.004C490.977 184.7 489.554 184.888 488.219 184.526C486.884 184.164 485.744 183.282 485.05 182.073Z" fill="#263238"/>
<path d="M117.389 346.871C114.191 345.333 108.804 342.123 105.472 340.868C102.179 339.443 98.5045 339.192 95.0512 340.155C93.0934 340.819 91.1357 342.406 91.1235 344.497L104.196 354.251L117.389 350.733V346.871Z" fill="#FF9A6C"/>
<path d="M103.089 346.736C103.089 346.736 79.608 341.582 75.6925 339.552C71.777 337.523 51.3725 327.191 47.9555 327.191C44.5386 327.191 41.6202 328.126 41 331.57L45.4627 335.075L46.0342 336.871L53.6707 340.893L55.0205 343.427L74.4765 353.931C74.4765 353.931 94.881 364.411 98.2858 365.001C101.691 365.591 118.69 367.031 125.962 373.291L155.146 361.163C155.146 361.163 146.719 349.06 140.226 346.071C134.437 343.415 124.722 343.415 117.924 346.231L103.089 346.736Z" fill="#FFBF9D"/>
<path d="M122.618 366.551C122.618 366.551 159.767 448.493 165.749 464.951C165.749 464.951 207.276 458.038 208.699 434.73L155.195 360.93L122.618 366.551Z" fill="#FFBF9D"/>
<path d="M88.12 348.593C88.12 348.593 87.9741 348.593 87.7187 348.593C87.3388 348.554 86.9639 348.476 86.6 348.359C85.2682 347.949 83.9744 347.422 82.7331 346.785C81.1523 346.01 79.3162 344.989 77.2976 343.845C76.2883 343.279 75.2304 342.677 74.1238 342.099C73.0173 341.52 71.8134 341.016 70.5853 340.475C68.3113 339.433 65.9616 338.57 63.5568 337.892C61.3558 337.338 59.24 336.92 57.647 337.461C57.0292 337.712 56.4686 338.087 56.0001 338.566C55.5316 339.044 55.165 339.614 54.9232 340.241C54.7436 340.72 54.5365 341.189 54.303 341.643C54.303 341.643 54.303 341.496 54.3638 341.25C54.4451 340.873 54.5549 340.503 54.6922 340.143C54.907 339.569 55.1974 339.027 55.5555 338.532C56.0287 337.854 56.6884 337.332 57.4525 337.031C58.3951 336.711 59.3967 336.611 60.383 336.736C61.4861 336.846 62.5795 337.039 63.6541 337.314C66.1101 337.969 68.5095 338.824 70.8285 339.872C72.0445 340.413 73.2605 340.918 74.3914 341.52C75.5222 342.123 76.568 342.75 77.5773 343.329C79.5837 344.497 81.3834 345.555 82.9277 346.367C84.1243 347.028 85.3633 347.607 86.6365 348.101C87.585 348.458 88.12 348.531 88.12 348.593Z" fill="#FF9A6C"/>
<path d="M65.7213 336.81C64.5765 336.576 63.468 336.187 62.4259 335.653C59.9179 334.456 57.3392 333.417 54.7043 332.541C53.2626 332.128 51.7559 331.999 50.2659 332.16C49.6714 332.178 49.0868 332.319 48.5475 332.572C48.0082 332.826 47.5254 333.188 47.1286 333.636C46.6531 334.303 46.3405 335.074 46.2166 335.887C46.2056 336.202 46.144 336.514 46.0342 336.81C45.9774 336.496 45.9774 336.175 46.0342 335.862C46.0797 334.985 46.3568 334.135 46.8368 333.402C47.209 332.89 47.6913 332.469 48.2474 332.172C48.8834 331.866 49.5658 331.671 50.2659 331.594C51.8343 331.395 53.4264 331.516 54.9475 331.951C57.6198 332.818 60.2084 333.93 62.6813 335.272C63.7211 335.729 64.7359 336.242 65.7213 336.81Z" fill="#FF9A6C"/>
<path d="M124.332 344.411C124.332 344.411 124.004 344.608 123.384 344.829C122.495 345.154 121.59 345.433 120.672 345.665C117.654 346.46 114.56 346.926 111.443 347.055C108.327 347.191 105.206 347.002 102.128 346.49C100.912 346.281 100.012 346.071 99.368 345.887C99.0232 345.834 98.69 345.722 98.3831 345.555C98.3831 345.456 99.8423 345.739 102.201 346.035C105.258 346.417 108.341 346.545 111.419 346.416C114.498 346.255 117.56 345.844 120.575 345.186C122.825 344.743 124.247 344.325 124.332 344.411Z" fill="#FF9A6C"/>
<path d="M470.212 295.764L416.172 284.448L402.796 274.301L331.417 288.225C330.274 290.34 318.71 306.675 318.71 306.675L290.596 316.33C278.647 319.506 267.982 326.388 260.099 336.01C252.603 345.374 246.461 355.769 241.859 366.883C229.212 396.907 210.96 431.593 210.96 431.593L199.518 412.947L151.291 435.923C151.291 435.923 179.539 493.524 188.89 501.753C199.287 510.891 223.193 511.949 239.719 494.901C249.678 484.619 278.46 443.979 284.455 433.807L293.356 476.341L301.54 524.889L288.31 558.308H481.411L473.422 526.722C473.422 526.722 481.289 444.398 483.466 429.072C488.585 392.922 470.212 295.764 470.212 295.764Z" fill="#5ED8FF"/>
<path d="M470.211 295.764C470.211 295.764 508.88 306.736 517.392 345.616C522.548 369.171 540.059 436.316 546.224 491.593C549.872 524.458 549.774 554.827 549.872 558.308H490.531L465.384 306.736L470.211 295.764Z" fill="#5ED8FF"/>
<path d="M371.035 329.147C371.035 329.147 371.035 329.294 370.876 329.553L370.329 330.684C369.843 331.68 369.113 333.144 368.323 335.001C366.608 338.691 364.59 344.165 361.331 350.278L361.173 350.585L360.905 350.352C356.892 346.895 352.539 342.738 348.04 338.249C340.075 330.254 333.095 322.812 327.94 317.535L321.799 311.299L320.108 309.614C319.903 309.428 319.716 309.222 319.549 308.999C319.784 309.149 320 309.327 320.194 309.528L321.945 311.127C323.452 312.529 325.593 314.608 328.231 317.216C333.472 322.419 340.513 329.811 348.453 337.793C352.953 342.283 357.282 346.404 361.246 349.921L360.808 349.995C364.091 343.968 366.183 338.519 367.982 334.854C368.87 332.997 369.612 331.57 370.147 330.598C370.39 330.167 370.597 329.799 370.767 329.516C370.843 329.383 370.933 329.26 371.035 329.147Z" fill="black"/>
<path d="M416.926 285.838C416.923 286.129 416.886 286.417 416.817 286.699C416.695 287.314 416.549 288.126 416.367 289.159C415.929 291.275 415.151 294.325 414.154 298.04C412.05 305.42 408.645 315.617 404.426 326.625C402.201 332.455 400.012 337.966 397.969 342.849L397.811 343.23L397.507 342.96C391.998 338.04 387.061 334.165 383.717 331.287C382.039 329.848 380.726 328.692 379.838 327.88L378.853 326.945C378.622 326.723 378.513 326.613 378.525 326.6C378.665 326.674 378.796 326.765 378.914 326.871L379.96 327.744L383.936 331.016C387.353 333.821 392.327 337.621 397.896 342.517L397.434 342.627C399.44 337.707 401.617 332.222 403.83 326.404C408.001 315.334 411.467 305.309 413.668 297.917C414.762 294.227 415.564 291.201 416.1 289.098C416.331 288.102 416.525 287.302 416.671 286.638C416.736 286.365 416.822 286.098 416.926 285.838Z" fill="black"/>
<path d="M291.836 470.892C291.786 470.808 291.749 470.717 291.727 470.621L291.472 469.785C291.253 468.965 290.949 467.882 290.56 466.538C290.146 465.135 289.745 463.401 289.259 461.384C288.772 459.367 288.249 457.054 287.726 454.496C285.036 441.151 283.144 427.654 282.06 414.078C280.686 398.174 280.382 383.722 280.455 373.279C280.455 368.052 280.588 363.82 280.734 360.905C280.807 359.478 280.856 358.359 280.892 357.535C280.892 357.191 280.893 356.895 280.953 356.662C280.941 356.564 280.941 356.465 280.953 356.367C280.963 356.469 280.963 356.572 280.953 356.674V357.547C280.953 358.371 280.953 359.491 280.953 360.905C280.953 363.833 280.856 368.052 280.88 373.279C280.88 383.709 281.294 398.15 282.668 414.017C283.762 427.572 285.588 441.057 288.14 454.41C288.638 456.968 289.1 459.33 289.575 461.298C290.049 463.266 290.402 465.074 290.791 466.476L291.593 469.748L291.776 470.597C291.836 470.793 291.849 470.892 291.836 470.892Z" fill="black"/>
<path d="M473.422 338.888C473.494 338.994 473.551 339.11 473.592 339.233C473.701 339.491 473.847 339.823 474.018 340.241C474.407 341.176 474.93 342.492 475.611 344.153C475.951 345.014 476.352 345.948 476.741 346.994L477.897 350.438C478.31 351.668 478.748 353.009 479.222 354.411C479.696 355.813 480.012 357.351 480.438 358.937C484.086 371.594 485.91 389.909 484.864 409.945C483.819 429.982 481.484 448.075 480 461.064C479.259 467.559 478.651 472.835 478.225 476.525C478.018 478.309 477.848 479.723 477.726 480.72L477.58 481.814C477.572 481.94 477.547 482.064 477.508 482.183C477.491 482.061 477.491 481.937 477.508 481.814L477.593 480.707C477.69 479.699 477.824 478.247 477.982 476.501C478.322 472.811 478.857 467.546 479.55 461.015C480.876 447.952 483.113 429.921 484.183 409.921C485.253 389.921 483.454 371.705 479.964 359.048L478.748 354.522L477.532 350.561C477.143 349.331 476.778 348.162 476.437 347.105C476.097 346.047 475.684 345.1 475.355 344.239C474.723 342.554 474.237 341.237 473.872 340.29C473.726 339.86 473.604 339.528 473.507 339.257C473.46 339.139 473.431 339.015 473.422 338.888Z" fill="black"/>
<path d="M211.276 473.475C211.106 473.475 210.9 464.102 210.827 452.565C210.754 441.027 210.827 431.655 211.009 431.655C211.191 431.655 211.386 441.027 211.459 452.565C211.532 464.102 211.459 473.475 211.276 473.475Z" fill="black"/>
<path d="M386.745 530.239V529.723C386.745 529.354 386.843 528.862 386.916 528.222C387.086 526.869 387.317 524.938 387.621 522.453C387.779 521.223 387.949 519.809 388.144 518.296C388.338 516.783 388.484 515.11 388.667 513.376C389.019 509.809 389.506 505.762 389.883 501.26C390.065 499.022 390.247 496.66 390.454 494.213C390.661 491.765 390.758 489.206 390.916 486.562C391.281 481.273 391.439 475.603 391.646 469.65C391.913 457.731 391.877 444.619 391.269 430.88C390.661 417.141 389.42 404.078 388.046 392.233C387.28 386.317 386.612 380.696 385.748 375.468C385.347 372.848 384.994 370.315 384.532 367.892C384.07 365.468 383.693 363.144 383.316 360.918C382.574 356.477 381.723 352.492 381.03 348.974C380.677 347.215 380.361 345.579 380.057 344.054C379.753 342.529 379.425 341.188 379.145 339.958L377.929 334.288C377.808 333.661 377.698 333.169 377.625 332.812C377.552 332.455 377.54 332.295 377.54 332.295C377.602 332.455 377.651 332.62 377.686 332.787L378.063 334.251L379.413 339.909L380.373 343.993C380.69 345.493 381.03 347.117 381.407 348.913C382.125 352.418 383.012 356.403 383.778 360.844C384.184 363.066 384.589 365.391 384.994 367.818C385.432 370.278 385.785 372.738 386.21 375.395C387.086 380.634 387.779 386.255 388.569 392.172C389.968 404.029 391.159 417.104 391.84 430.855C392.521 444.607 392.473 457.743 392.169 469.674C391.938 475.64 391.767 481.31 391.378 486.599C391.208 489.243 391.086 491.802 390.88 494.262C390.673 496.722 390.454 499.071 390.26 501.322C389.919 505.824 389.396 509.932 389.044 513.425C388.837 515.209 388.642 516.869 388.472 518.345C388.302 519.821 388.071 521.248 387.888 522.503C387.536 524.963 387.256 526.906 387.074 528.247L386.843 529.747C386.824 529.914 386.792 530.078 386.745 530.239Z" fill="black"/>
<path d="M412.452 397.473H412.695L413.461 397.387L416.44 397.043L427.834 395.813L468.388 391.557H468.692V391.864C468.996 404.275 469.36 418.322 469.737 433.217V433.352L469.652 433.438L464.788 438.764L447.059 457.928L446.901 458.1L446.694 457.989L416.817 442.983L416.683 442.922V442.811C415.382 429.096 414.251 417.756 413.558 409.798C413.193 405.886 412.914 402.811 412.719 400.683C412.634 399.662 412.561 398.875 412.512 398.297C412.464 397.719 412.512 397.51 412.512 397.51C412.512 397.51 412.512 397.805 412.622 398.346C412.731 398.888 412.78 399.736 412.901 400.806C413.12 402.959 413.449 406.046 413.874 409.982C414.689 417.879 415.844 429.158 417.255 442.799L417.109 442.589L447.022 457.509L446.67 457.571L464.363 438.334L469.227 433.02L469.141 433.241C468.789 418.346 468.448 404.312 468.156 391.889L468.473 392.159L428.041 396.071L416.574 397.153L413.522 397.424L412.731 397.498L412.452 397.473Z" fill="black"/>
<path d="M468.764 406.132C468.075 406.326 467.372 406.462 466.661 406.538C465.299 406.76 463.329 407.042 460.885 407.362C456.021 407.99 449.223 408.715 441.745 409.441L422.581 411.335L416.78 411.95C416.077 412.065 415.365 412.118 414.652 412.11C415.341 411.916 416.045 411.781 416.756 411.704C418.118 411.483 420.088 411.2 422.532 410.88C427.396 410.253 434.194 409.527 441.684 408.801L460.836 406.907L466.636 406.292C467.34 406.178 468.052 406.124 468.764 406.132Z" fill="black"/>
<g opacity="0.3">
<path d="M480.511 454.508L482.554 479.637C487.065 458.112 494.155 434.976 493.048 413.008C491.941 391.04 489.899 370.019 477.666 350.13C482.984 365.105 485.423 380.969 484.852 396.87C483.733 422.577 480.511 454.508 480.511 454.508Z" fill="black"/>
</g>
<path d="M203.227 407.731C202.57 406.217 201.407 404.985 199.943 404.25C198.241 403.66 196.393 404.496 194.775 405.308L150.659 427.522C147.753 428.986 144.579 430.72 143.509 433.795C142.11 437.731 144.725 441.888 147.157 445.271C151.218 450.917 156.082 457.067 162.965 457.866L200.916 431.544C205.549 430.855 208.431 425.628 208.212 420.892C207.993 416.157 205.586 411.839 203.227 407.731Z" fill="#5ED8FF"/>
<path d="M208.018 423.82C207.905 423.978 207.775 424.123 207.628 424.25L206.412 425.394C205.367 426.378 203.822 427.768 201.889 429.441C198.01 432.799 192.501 437.264 186.081 441.815C179.66 446.366 173.787 450.117 169.324 452.651C167.111 453.942 165.3 454.951 164.035 455.615L162.576 456.366C162.235 456.538 162.053 456.612 162.041 456.587C162.181 456.453 162.341 456.341 162.515 456.255L163.913 455.394L169.093 452.257C173.459 449.601 179.405 445.788 185.753 441.249C192.1 436.71 197.645 432.319 201.561 429.06L206.218 425.16L207.434 424.115C207.847 423.918 208.005 423.795 208.018 423.82Z" fill="black"/>
<g opacity="0.3">
<path d="M416.355 288.655C411.163 306.096 403.891 325.826 397.75 342.775C392.521 338.286 385.201 332.345 379.96 327.843C384.471 336.894 389.886 345.455 396.121 353.39C396.85 354.312 397.823 355.321 398.954 355.1C400.085 354.878 400.596 353.697 400.985 352.64L410.555 327.019C415.029 315.038 419.346 301.066 416.355 288.655Z" fill="black"/>
</g>
<path d="M334.275 98.9029C350.083 94.3027 364.869 98.9029 379.449 106.553C394.029 114.204 405.788 126.836 413.4 141.535C421.426 157.02 424.976 175.064 422.07 192.297C419.164 209.529 409.533 225.765 395.111 235.347C375.4 248.483 348.235 247.794 327.94 235.63C307.644 223.465 294.281 201.042 290.742 177.438C288.31 161.178 290.28 144.032 297.783 129.468C305.285 114.905 318.552 103.097 334.263 98.8906" fill="#263238"/>
<path d="M386.174 148.952C383.122 143.011 383.255 135.963 381.589 129.468C377.941 115.188 365.052 104.868 351.044 100.748C338.02 96.898 322.954 99.7885 308.484 106.406C298.585 110.945 289.575 117.906 283.665 127.131C279.8 133.315 277.452 140.343 276.817 147.631C276.183 154.918 277.28 162.254 280.017 169.025L352.235 149.813C359.75 154.733 367.447 159.812 376.142 162.113C378.671 162.904 381.359 163.027 383.949 162.469C385.234 162.162 386.404 161.487 387.32 160.525C388.237 159.563 388.86 158.355 389.117 157.045C389.421 154.118 387.499 151.547 386.174 148.952Z" fill="#263238"/>
<path d="M403.404 278.483L384.763 145.864C383.936 139.591 381.115 133.195 374.877 133.49L309.213 127.094C288.638 128.054 278.983 155.384 280.807 176.085C282.838 199.136 286.206 227.192 291.447 243.822C301.99 277.241 328.608 277.585 328.608 277.585C328.608 277.585 330.226 284.227 332.256 296.65L374.816 325.284L403.404 278.483Z" fill="#FFBF9D"/>
<path d="M296.676 201.313C296.84 202.46 297.44 203.497 298.348 204.202C299.257 204.908 300.403 205.226 301.54 205.089C302.099 205.049 302.645 204.896 303.145 204.639C303.645 204.382 304.089 204.026 304.45 203.593C304.812 203.159 305.084 202.657 305.25 202.115C305.417 201.574 305.474 201.004 305.419 200.439C305.253 199.293 304.653 198.257 303.745 197.55C302.837 196.843 301.693 196.521 300.555 196.651C299.996 196.694 299.451 196.85 298.952 197.109C298.453 197.367 298.01 197.724 297.648 198.158C297.287 198.592 297.015 199.095 296.848 199.636C296.681 200.178 296.623 200.748 296.676 201.313Z" fill="#263238"/>
<path d="M289.015 189.689C289.635 190.181 292.554 187.229 297.235 186.503C301.917 185.778 305.687 187.635 306.112 186.971C306.319 186.676 305.614 185.741 303.96 184.855C301.722 183.757 299.206 183.379 296.749 183.773C294.316 184.138 292.062 185.28 290.316 187.032C289.04 188.361 288.711 189.431 289.015 189.689Z" fill="#263238"/>
<path d="M339.881 194.203C340.041 195.352 340.64 196.392 341.549 197.101C342.458 197.809 343.605 198.128 344.745 197.992C345.304 197.952 345.85 197.799 346.349 197.542C346.849 197.285 347.293 196.929 347.655 196.496C348.016 196.062 348.289 195.56 348.455 195.018C348.621 194.477 348.679 193.907 348.624 193.342C348.463 192.193 347.864 191.153 346.955 190.445C346.046 189.737 344.899 189.417 343.76 189.554C343.201 189.596 342.656 189.75 342.157 190.007C341.658 190.265 341.215 190.62 340.854 191.053C340.492 191.487 340.22 191.988 340.053 192.529C339.886 193.07 339.827 193.639 339.881 194.203Z" fill="#263238"/>
<path d="M333.484 183.428C334.105 183.92 337.035 180.969 341.705 180.243C346.374 179.517 350.156 181.374 350.581 180.71C350.788 180.415 350.083 179.48 348.429 178.595C346.188 177.494 343.667 177.116 341.206 177.512C338.742 177.879 336.461 179.04 334.7 180.821C333.484 182.051 333.156 183.281 333.484 183.428Z" fill="#263238"/>
<path d="M323.416 221.153C323.416 220.882 320.412 220.821 315.621 220.944C314.405 220.944 313.189 220.944 312.91 220.144C312.63 219.345 312.8 217.942 313.165 216.454C313.846 213.363 314.564 210.12 315.317 206.725C318.236 192.875 320.181 181.571 319.61 181.461C319.038 181.35 316.242 192.531 313.311 206.307C312.618 209.714 311.949 212.973 311.329 216.085C311.086 217.524 310.539 219.197 311.426 220.907C311.659 221.309 311.982 221.65 312.368 221.904C312.754 222.158 313.194 222.318 313.652 222.37C314.337 222.464 315.033 222.464 315.719 222.37C320.498 221.854 323.44 221.411 323.416 221.153Z" fill="#263238"/>
<path d="M328.62 277.585C344.609 275.362 359.672 268.689 372.129 258.311C372.129 258.311 361.513 285.186 330.785 287.892L328.62 277.585Z" fill="#FF9A6C"/>
<path d="M327.113 232.247C327.83 230.978 328.855 229.915 330.091 229.157C331.327 228.4 332.733 227.973 334.178 227.918C335.227 227.856 336.278 228.011 337.267 228.373C338.255 228.734 339.161 229.295 339.929 230.021C340.673 230.714 341.188 231.621 341.406 232.62C341.623 233.618 341.532 234.66 341.145 235.605C340.16 237.585 337.582 238.409 335.26 238.065C332.933 237.617 330.718 236.705 328.742 235.384C328.154 235.078 327.629 234.661 327.198 234.154C326.986 233.92 326.847 233.629 326.8 233.315C326.752 233.002 326.798 232.682 326.93 232.395" fill="#FF9A6C"/>
<path d="M337.668 222.296C336.889 222.37 337.668 227.512 333.861 231.817C330.055 236.122 324.595 236.405 324.656 237.118C324.656 237.462 326.018 237.93 328.304 237.647C331.284 237.229 334.023 235.761 336.038 233.502C337.972 231.337 338.997 228.496 338.896 225.581C338.762 223.403 338.008 222.223 337.668 222.296Z" fill="#263238"/>
<path d="M332.147 169.308C332.804 170.538 337.376 169.197 342.957 169.013C348.539 168.828 353.208 169.665 353.755 168.398C353.998 167.795 353.05 166.713 351.068 165.741C348.452 164.585 345.61 164.047 342.757 164.166C339.905 164.286 337.116 165.06 334.603 166.43C332.718 167.561 331.855 168.73 332.147 169.308Z" fill="#263238"/>
<path d="M287.276 168.816C288.261 169.763 291.314 168.152 295.18 167.5C299.047 166.848 302.476 167.119 303.011 165.876C303.267 165.274 302.586 164.29 301.005 163.49C298.897 162.572 296.567 162.306 294.31 162.727C292.052 163.147 289.969 164.234 288.322 165.852C287.094 167.168 286.814 168.349 287.276 168.816Z" fill="#263238"/>
<path d="M396.802 137.599C387.949 118.608 355.92 95.0284 335.588 99.2473L305.444 123.552C307.254 129.067 310.503 133.985 314.848 137.787C319.193 141.589 324.472 144.133 330.128 145.151C336.148 146.16 343.2 145.704 347.31 150.28C351.42 154.856 350.436 162.728 354.412 167.586C359.92 174.327 372.275 172.309 376.725 179.812C378.683 183.084 378.452 187.34 380.446 190.587C383.122 194.904 395.391 199.197 399.902 197.008C404.414 194.818 403.392 186.651 404.377 182.137C406.068 174.45 404.462 170.796 403.052 166.811C399.756 157.365 401.033 146.652 396.802 137.599Z" fill="#263238"/>
<path d="M386.441 202.961C386.064 200.402 388.071 193.945 390.503 193.121C396.996 191.054 409.071 189.738 411.758 206.811C415.406 230.181 391.524 229.061 391.366 228.397C391.208 227.733 387.755 211.743 386.441 202.961Z" fill="#FFBF9D"/>
<path d="M397.021 218.434C397.118 218.336 397.47 218.656 398.237 218.852C399.257 219.119 400.34 218.969 401.252 218.434C403.538 217.143 404.973 212.899 404.426 208.668C404.168 206.66 403.47 204.735 402.383 203.035C402.053 202.34 401.561 201.737 400.948 201.278C400.336 200.819 399.622 200.519 398.869 200.402C398.388 200.352 397.905 200.475 397.504 200.749C397.104 201.024 396.812 201.432 396.68 201.903C396.473 202.604 396.68 203.047 396.571 203.133C396.461 203.219 396.023 202.826 396.048 201.829C396.088 201.233 396.328 200.669 396.729 200.23C397.285 199.638 398.05 199.293 398.857 199.271C400.656 199.111 402.505 200.501 403.623 202.211C404.926 204.075 405.76 206.232 406.055 208.496C406.651 213.219 404.961 218.004 401.775 219.566C401.186 219.849 400.542 219.996 399.89 219.996C399.238 219.996 398.594 219.849 398.005 219.566C397.154 218.951 396.948 218.483 397.021 218.434Z" fill="#FF9A6C"/>
<path d="M311.378 115.692C310.32 125.532 297.345 139.37 291.922 147.525C281.5 163.084 279.652 168.066 283.324 199.751C276.418 189.455 270.873 179.222 269.948 166.811C269.024 154.4 272.113 141.522 279.604 131.658C287.094 121.793 299.145 115.299 311.438 115.668" fill="#263238"/>
<path d="M366.475 82.3225C371.339 76.8982 378.367 73.3681 385.663 71.5231C396.06 68.8909 407.478 69.6043 416.939 74.1799C426.399 78.7555 433.719 87.3409 435.628 97.1809C436.567 102.236 436.126 107.454 434.352 112.273C432.577 117.093 429.538 121.333 425.56 124.536C430.97 129.841 437.564 133.748 444.785 135.926C442.815 138.915 439.179 140.661 435.507 141.289C431.815 141.756 428.078 141.731 424.393 141.215C426.909 145.017 430.673 147.797 435.02 149.062C429.036 150.46 422.795 150.252 416.914 148.46C411.163 146.696 405.658 144.195 400.535 141.018C382.745 130.575 372.932 121.424 360.917 105.348C359.349 98.4109 361.574 87.7591 366.475 82.3225Z" fill="#263238"/>
<path d="M404.827 131.621C391.767 112.322 375.145 102.003 360.103 98.7922L404.827 131.621Z" fill="#263238"/>
<path d="M360.103 98.7922C360.792 99.0713 361.504 99.2894 362.231 99.4441C363.605 99.8377 365.587 100.44 367.97 101.363C374.175 103.801 380.009 107.114 385.298 111.203C390.588 115.282 395.409 119.948 399.671 125.114C401.276 127.119 402.578 128.804 403.417 129.911C403.834 130.539 404.306 131.127 404.827 131.67C404.475 130.997 404.069 130.356 403.611 129.751C402.833 128.521 401.593 126.861 400.024 124.831C395.869 119.51 391.083 114.726 385.772 110.588C380.42 106.458 374.474 103.181 368.14 100.871C366.23 100.183 364.281 99.6126 362.304 99.1612C361.581 98.979 360.845 98.8556 360.103 98.7922Z" fill="#455A64"/>
<path d="M420.392 148.066L420.1 148.164L419.249 148.509C418.519 148.829 417.425 149.247 415.99 149.739C411.935 151.112 407.729 151.98 403.465 152.322C397.145 152.798 390.789 152.384 384.581 151.092C376.977 149.476 369.542 147.132 362.377 144.093C354.716 140.932 347.493 137.685 341.06 134.499C335.347 131.703 329.847 128.479 324.608 124.856C321.085 122.402 317.759 119.671 314.661 116.689C313.542 115.643 312.74 114.77 312.229 114.229L311.584 113.577C311.438 113.441 311.365 113.368 311.353 113.38C311.341 113.392 311.353 113.466 311.536 113.626L312.132 114.327C312.654 114.942 313.433 115.84 314.564 116.922C317.611 119.992 320.91 122.794 324.425 125.299C329.647 129.009 335.148 132.299 340.878 135.139C347.323 138.374 354.533 141.645 362.206 144.819C369.417 147.867 376.902 150.202 384.557 151.793C390.826 153.059 397.242 153.415 403.611 152.851C407.869 152.457 412.06 151.523 416.087 150.071C417.51 149.517 418.592 149.062 419.31 148.693L420.125 148.287C420.307 148.127 420.404 148.078 420.392 148.066Z" fill="#455A64"/>
<path d="M351.493 263.895L349.292 259.541C349.451 259.455 364.724 251.534 370.597 246.54C384.435 234.781 397.154 215.999 397.288 215.79L401.301 218.557C400.766 219.357 388.083 238.09 373.722 250.291C367.399 255.629 352.138 263.563 351.493 263.895Z" fill="#455A64"/>
<path d="M362.863 250.304C362.863 250.304 341.996 259.725 341.996 261.816C341.996 263.907 345.304 268.089 347.785 267.88C350.265 267.671 357.44 263.588 358.729 261.915C360.018 260.242 362.304 255.937 364.809 253.846L362.863 250.304Z" fill="#263238"/>
<path d="M401.131 186.971L396.267 186.737C396.443 172.55 394.027 158.451 389.141 145.151C378.586 117.648 358.291 102.888 328.839 101.264C326.16 101.146 323.476 101.331 320.838 101.818L322.966 99.7762C323.997 98.7916 325.196 98.004 326.505 97.4515C328.298 96.6932 330.247 96.3892 332.183 96.5659C369.369 99.8254 386.174 123.737 393.725 143.515C398.869 157.401 401.382 172.144 401.131 186.971Z" fill="#455A64"/>
<path d="M398.699 231.706C407.207 231.706 414.105 221.672 414.105 209.295C414.105 196.918 407.207 186.885 398.699 186.885C390.19 186.885 383.292 196.918 383.292 209.295C383.292 221.672 390.19 231.706 398.699 231.706Z" fill="#455A64"/>
<path d="M414.105 209.295C414.091 209.193 414.091 209.09 414.105 208.988C414.105 208.742 414.105 208.447 414.032 208.078C413.978 206.916 413.86 205.758 413.68 204.609C413.051 200.372 411.42 196.35 408.925 192.887C408.085 191.768 407.113 190.756 406.031 189.874C404.853 188.935 403.524 188.207 402.103 187.721C400.582 187.223 398.972 187.067 397.385 187.266C395.707 187.521 394.1 188.129 392.667 189.05C389.632 191.185 387.288 194.181 385.931 197.66C384.412 201.364 383.63 205.335 383.63 209.345C383.63 213.355 384.412 217.325 385.931 221.03C387.287 224.509 389.631 227.505 392.667 229.64C394.1 230.561 395.707 231.168 397.385 231.423C398.972 231.616 400.581 231.461 402.103 230.968C403.524 230.482 404.853 229.754 406.031 228.815C407.11 227.93 408.082 226.919 408.925 225.802C411.42 222.339 413.051 218.318 413.68 214.08C413.86 212.931 413.977 211.773 414.032 210.611C414.032 210.242 414.032 209.947 414.105 209.701C414.089 209.599 414.089 209.496 414.105 209.394C414.124 209.495 414.124 209.6 414.105 209.701V210.611C414.092 211.784 414.011 212.954 413.862 214.117C413.318 218.43 411.722 222.539 409.217 226.073C408.365 227.231 407.377 228.28 406.274 229.197C405.058 230.19 403.68 230.96 402.201 231.472C400.607 232.002 398.918 232.174 397.252 231.977C395.492 231.721 393.805 231.093 392.302 230.132C389.156 227.966 386.721 224.9 385.31 221.325C383.745 217.546 382.939 213.491 382.939 209.394C382.939 205.297 383.745 201.241 385.31 197.463C386.721 193.888 389.156 190.821 392.302 188.656C393.805 187.695 395.492 187.066 397.252 186.811C398.918 186.614 400.607 186.786 402.201 187.315C403.68 187.827 405.058 188.597 406.274 189.591C407.38 190.504 408.369 191.554 409.217 192.715C411.725 196.247 413.322 200.356 413.862 204.671C414.011 205.829 414.092 206.996 414.105 208.164V209.086C414.113 209.156 414.113 209.226 414.105 209.295Z" fill="#263238"/>
<path d="M401.07 222.309C406.489 222.309 410.883 215.921 410.883 208.041C410.883 200.161 406.489 193.773 401.07 193.773C395.65 193.773 391.257 200.161 391.257 208.041C391.257 215.921 395.65 222.309 401.07 222.309Z" fill="#455A64"/>
<path d="M410.883 208.041C410.81 208.041 410.883 206.958 410.53 205.052C410.123 202.379 409.08 199.846 407.49 197.672C406.409 196.181 404.909 195.053 403.186 194.437C402.229 194.125 401.216 194.029 400.219 194.154C399.167 194.313 398.16 194.694 397.264 195.273C395.355 196.618 393.88 198.5 393.02 200.685C392.058 203.024 391.566 205.533 391.573 208.065C391.561 210.599 392.053 213.108 393.02 215.445C393.88 217.631 395.355 219.513 397.264 220.857C398.16 221.437 399.167 221.818 400.219 221.977C401.216 222.102 402.229 222.005 403.186 221.694C404.909 221.078 406.409 219.95 407.49 218.459C409.08 216.285 410.123 213.752 410.53 211.079C410.834 209.172 410.81 208.09 410.883 208.102C410.899 208.36 410.899 208.619 410.883 208.877C410.881 209.626 410.832 210.373 410.737 211.116C410.414 213.875 409.406 216.507 407.806 218.766C406.692 220.36 405.122 221.571 403.307 222.235C402.284 222.587 401.195 222.705 400.121 222.579C398.982 222.4 397.892 221.981 396.923 221.349C394.902 219.962 393.335 217.996 392.424 215.704C391.421 213.283 390.904 210.684 390.904 208.059C390.904 205.434 391.421 202.836 392.424 200.415C393.335 198.122 394.902 196.157 396.923 194.769C397.889 194.139 398.974 193.72 400.109 193.539C401.187 193.414 402.279 193.532 403.307 193.883C405.122 194.548 406.692 195.758 407.806 197.352C409.406 199.611 410.414 202.243 410.737 205.003C410.832 205.745 410.881 206.493 410.883 207.241C410.899 207.508 410.899 207.775 410.883 208.041Z" fill="#263238"/>
<path d="M401.751 218.299C405.646 218.299 408.804 213.706 408.804 208.041C408.804 202.375 405.646 197.783 401.751 197.783C397.856 197.783 394.698 202.375 394.698 208.041C394.698 213.706 397.856 218.299 401.751 218.299Z" fill="#455A64"/>
<path d="M408.804 208.041C408.743 208.041 408.743 207.266 408.524 205.901C408.211 203.981 407.452 202.165 406.311 200.599C405.542 199.538 404.474 198.736 403.246 198.299C402.547 198.073 401.807 198.01 401.08 198.114C400.354 198.219 399.66 198.488 399.051 198.902C396.412 200.661 395.014 204.351 395.002 208.028C394.99 211.706 396.412 215.408 399.051 217.167C399.66 217.581 400.354 217.851 401.08 217.955C401.807 218.059 402.547 217.996 403.246 217.77C404.474 217.333 405.542 216.531 406.311 215.47C407.452 213.905 408.211 212.088 408.524 210.169C408.743 208.803 408.743 208.028 408.804 208.041C408.833 208.224 408.833 208.411 408.804 208.594C408.81 209.133 408.781 209.671 408.718 210.206C408.5 212.205 407.78 214.114 406.627 215.753C405.806 216.887 404.666 217.744 403.356 218.213C402.609 218.467 401.817 218.555 401.033 218.471C400.203 218.355 399.408 218.062 398.699 217.61C397.227 216.602 396.087 215.171 395.428 213.502C394.696 211.751 394.319 209.868 394.319 207.967C394.319 206.066 394.696 204.183 395.428 202.432C396.087 200.763 397.227 199.332 398.699 198.324C399.408 197.872 400.203 197.579 401.033 197.463C401.817 197.379 402.609 197.467 403.356 197.721C404.666 198.19 405.806 199.047 406.627 200.181C407.78 201.82 408.5 203.729 408.718 205.728C408.781 206.263 408.81 206.801 408.804 207.34C408.847 207.571 408.847 207.809 408.804 208.041Z" fill="#263238"/>
</g>
<defs>
<filter id="filter0_d_3_207" x="-4" y="0.5" width="616" height="623" filterUnits="userSpaceOnUse" color-interpolation-filters="sRGB">
<feFlood flood-opacity="0" result="BackgroundImageFix"/>
<feColorMatrix in="SourceAlpha" type="matrix" values="0 0 0 0 0 0 0 0 0 0 0 0 0 0 0 0 0 0 127 0" result="hardAlpha"/>
<feOffset dy="4"/>
<feGaussianBlur stdDeviation="2"/>
<feComposite in2="hardAlpha" operator="out"/>
<feColorMatrix type="matrix" values="0 0 0 0 0 0 0 0 0 0 0 0 0 0 0 0 0 0 0.25 0"/>
<feBlend mode="normal" in2="BackgroundImageFix" result="effect1_dropShadow_3_207"/>
<feBlend mode="normal" in="SourceGraphic" in2="effect1_dropShadow_3_207" result="shape"/>
</filter>
</defs>
</svg>
